<?xml version="1.0" encoding="utf-8"?>
<!-- Generator: Adobe Illustrator 16.0.0, SVG Export Plug-In . SVG Version: 6.00 Build 0)  -->
<!DOCTYPE svg PUBLIC "-//W3C//DTD SVG 1.1//EN" "http://www.w3.org/Graphics/SVG/1.1/DTD/svg11.dtd">
<svg version="1.1" id="Layer_1" xmlns="http://www.w3.org/2000/svg" xmlns:xlink="http://www.w3.org/1999/xlink" x="0px" y="0px"
	 width="2048px" height="1988.127px" viewBox="0 0 2048 1988.127" enable-background="new 0 0 2048 1988.127" xml:space="preserve">
<g>
	<rect id="XMLID_1795_" fill="#77C7D4" width="2048" height="1988.127"/>
	<rect id="XMLID_348_" x="510.68" y="259.028" fill="#B9E0E9" width="970.236" height="1482.807"/>
	
		<rect id="XMLID_4639_" x="538.679" y="231.028" fill="#FFFFFF" stroke="#3C3C3B" stroke-linecap="round" stroke-linejoin="round" stroke-miterlimit="10" width="970.237" height="1482.806"/>
	<polygon id="XMLID_16_" fill="#F5F5F5" points="1025.198,609.14 1381.823,609.14 1203.515,1043.961 1025.198,1478.782 
		846.887,1043.961 668.575,609.14 	"/>
	<g id="XMLID_591_">
		<path id="XMLID_1859_" fill="#3C3C3B" stroke="#3C3C3B" stroke-width="0.2142" stroke-miterlimit="10" d="M806.051,396.806
			l8.245,20.656l8.36-20.656h4.921l-13.38,32.045l-13.068-32.045H806.051z"/>
		<path id="XMLID_1908_" fill="#3C3C3B" stroke="#3C3C3B" stroke-width="0.2142" stroke-miterlimit="10" d="M836.395,411.573
			c0-4.196,1.536-7.799,4.613-10.811c3.062-3.013,6.744-4.518,11.043-4.518c4.247,0,7.889,1.517,10.926,4.556
			c3.051,3.038,4.575,6.687,4.575,10.946c0,4.285-1.532,7.922-4.595,10.907c-3.075,3-6.788,4.499-11.139,4.499
			c-3.846,0-7.302-1.333-10.366-3.997C838.079,420.207,836.395,416.348,836.395,411.573z M840.931,411.63
			c0,3.294,1.105,6.002,3.322,8.128c2.199,2.124,4.742,3.184,7.625,3.184c3.127,0,5.765-1.08,7.914-3.242
			c2.15-2.188,3.225-4.851,3.225-7.992c0-3.18-1.063-5.844-3.187-7.992c-2.11-2.162-4.723-3.242-7.836-3.242
			c-3.103,0-5.721,1.08-7.857,3.242C841.999,405.852,840.931,408.491,840.931,411.63z"/>
		<path id="XMLID_1917_" fill="#3C3C3B" stroke="#3C3C3B" stroke-width="0.2142" stroke-miterlimit="10" d="M891.209,413.909
			l9.228,12.702h-5.501l-8.515-12.199h-0.809v12.199h-4.499v-29.805h5.27c3.94,0,6.782,0.738,8.534,2.218
			c1.93,1.649,2.896,3.825,2.896,6.526c0,2.111-0.605,3.925-1.815,5.443C894.788,412.512,893.193,413.484,891.209,413.909z
			 M885.613,410.491h1.429c4.258,0,6.388-1.627,6.388-4.884c0-3.05-2.072-4.576-6.216-4.576h-1.601V410.491z"/>
		<path id="XMLID_1926_" fill="#3C3C3B" stroke="#3C3C3B" stroke-width="0.2142" stroke-miterlimit="10" d="M920.702,401.031v25.579
			h-4.497v-25.579h-6.856v-4.226h18.188v4.226H920.702z"/>
		<path id="XMLID_1928_" fill="#3C3C3B" stroke="#3C3C3B" stroke-width="0.2142" stroke-miterlimit="10" d="M955.903,401.031
			h-11.948v7.162h11.604v4.229h-11.604v9.96h11.948v4.227h-16.447v-29.805h16.447V401.031z"/>
		<path id="XMLID_1930_" fill="#3C3C3B" stroke="#3C3C3B" stroke-width="0.2142" stroke-miterlimit="10" d="M975.954,411.032
			l-8.202-14.226h5.116l5.693,10.095l5.985-10.095h5.154l-8.592,14.226l9.016,15.579h-5.037l-6.604-11.409l-6.796,11.409h-5.095
			L975.954,411.032z"/>
		<path id="XMLID_1932_" fill="#3C3C3B" stroke="#3C3C3B" stroke-width="0.2142" stroke-miterlimit="10" d="M1044.184,398.407v5.328
			c-2.602-2.175-5.289-3.261-8.069-3.261c-3.063,0-5.646,1.099-7.742,3.301c-2.11,2.188-3.168,4.863-3.168,8.031
			c0,3.125,1.058,5.766,3.168,7.915c2.108,2.149,4.698,3.223,7.762,3.223c1.582,0,2.925-0.256,4.034-0.771
			c0.617-0.256,1.258-0.603,1.917-1.042c0.665-0.438,1.365-0.966,2.099-1.583v5.424c-2.574,1.456-5.277,2.183-8.109,2.183
			c-4.257,0-7.896-1.487-10.906-4.46c-3-2.997-4.498-6.615-4.498-10.849c0-3.796,1.253-7.182,3.763-10.155
			c3.091-3.641,7.087-5.463,11.989-5.463C1039.1,396.225,1041.685,396.954,1044.184,398.407z"/>
		<path id="XMLID_1934_" fill="#3C3C3B" stroke="#3C3C3B" stroke-width="0.2142" stroke-miterlimit="10" d="M1056.086,411.573
			c0-4.196,1.539-7.799,4.614-10.811c3.062-3.013,6.746-4.518,11.043-4.518c4.245,0,7.891,1.517,10.926,4.556
			c3.05,3.038,4.577,6.687,4.577,10.946c0,4.285-1.531,7.922-4.597,10.907c-3.075,3-6.788,4.499-11.138,4.499
			c-3.848,0-7.304-1.333-10.366-3.997C1057.773,420.207,1056.086,416.348,1056.086,411.573z M1060.626,411.63
			c0,3.294,1.105,6.002,3.319,8.128c2.201,2.124,4.742,3.184,7.627,3.184c3.123,0,5.765-1.08,7.913-3.242
			c2.148-2.188,3.222-4.851,3.222-7.992c0-3.18-1.062-5.844-3.184-7.992c-2.113-2.162-4.723-3.242-7.84-3.242
			c-3.1,0-5.719,1.08-7.855,3.242C1061.691,405.852,1060.626,408.491,1060.626,411.63z"/>
		<path id="XMLID_1937_" fill="#3C3C3B" stroke="#3C3C3B" stroke-width="0.2142" stroke-miterlimit="10" d="M1100.806,426.61
			v-31.833l21.739,22.74v-20.712h4.499v31.622l-21.739-22.685v20.868H1100.806z"/>
		<path id="XMLID_1939_" fill="#3C3C3B" stroke="#3C3C3B" stroke-width="0.2142" stroke-miterlimit="10" d="M1164.391,398.407v5.328
			c-2.601-2.175-5.288-3.261-8.068-3.261c-3.062,0-5.644,1.099-7.742,3.301c-2.11,2.188-3.164,4.863-3.164,8.031
			c0,3.125,1.054,5.766,3.164,7.915c2.113,2.149,4.699,3.223,7.762,3.223c1.582,0,2.927-0.256,4.034-0.771
			c0.618-0.256,1.258-0.603,1.919-1.042c0.663-0.438,1.363-0.966,2.096-1.583v5.424c-2.573,1.456-5.276,2.183-8.107,2.183
			c-4.262,0-7.896-1.487-10.908-4.46c-2.999-2.997-4.499-6.615-4.499-10.849c0-3.796,1.259-7.182,3.766-10.155
			c3.091-3.641,7.087-5.463,11.988-5.463C1159.307,396.225,1161.896,396.954,1164.391,398.407z"/>
		<path id="XMLID_1941_" fill="#3C3C3B" stroke="#3C3C3B" stroke-width="0.2142" stroke-miterlimit="10" d="M1194.423,401.031
			h-11.948v7.162h11.602v4.229h-11.602v9.96h11.948v4.227h-16.449v-29.805h16.449V401.031z"/>
		<path id="XMLID_1945_" fill="#3C3C3B" stroke="#3C3C3B" stroke-width="0.2142" stroke-miterlimit="10" d="M1212.732,414.507
			v12.104h-4.495v-29.805h5.097c2.497,0,4.379,0.172,5.656,0.521c1.286,0.346,2.419,1.001,3.396,1.966
			c1.71,1.674,2.57,3.785,2.57,6.333c0,2.73-0.915,4.892-2.741,6.489c-1.829,1.595-4.294,2.392-7.396,2.392H1212.732z
			 M1212.732,410.336h1.68c4.133,0,6.199-1.589,6.199-4.767c0-3.077-2.133-4.613-6.39-4.613h-1.489V410.336z"/>
		<path id="XMLID_1948_" fill="#3C3C3B" stroke="#3C3C3B" stroke-width="0.2142" stroke-miterlimit="10" d="M1245.718,401.031
			v25.579h-4.498v-25.579h-6.85v-4.226h18.185v4.226H1245.718z"/>
	</g>
	<g id="XMLID_334_">
		<path id="XMLID_469_" fill="#3C3C3B" stroke="#3C3C3B" stroke-width="0.3597" stroke-miterlimit="10" d="M983.92,1337.194
			l27.674,69.35l28.065-69.35h16.525l-44.913,107.589l-43.878-107.589H983.92z"/>
		<path id="XMLID_473_" fill="#3C3C3B" stroke="#3C3C3B" stroke-width="0.3597" stroke-miterlimit="10" d="M1083.004,1337.194
			l-43.345,107.589h-16.526l43.345-107.589H1083.004z"/>
		<path id="XMLID_331_" fill="#3C3C3B" stroke="#3C3C3B" stroke-width="0.3597" stroke-miterlimit="10" d="M1039.659,1337.194
			l43.345,107.589h-16.526l-43.345-107.589H1039.659z"/>
	</g>
	<g id="XMLID_60_">
		<path id="XMLID_18_" fill="#3C3C3B" stroke="#3C3C3B" stroke-width="0.3597" stroke-miterlimit="10" d="M685.1,609.138
			l27.673,69.351l28.066-69.351h16.526l-44.915,107.589l-43.876-107.589H685.1z"/>
		<path id="XMLID_20_" fill="#3C3C3B" stroke="#3C3C3B" stroke-width="0.3597" stroke-miterlimit="10" d="M803.24,662.496
			c0-14.605,5.353-27.149,16.061-37.633c10.665-10.483,23.476-15.725,38.44-15.725c14.783,0,27.461,5.287,38.036,15.86
			c10.617,10.572,15.925,23.273,15.925,38.103c0,14.918-5.331,27.575-15.995,37.967c-10.708,10.439-23.63,15.658-38.774,15.658
			c-13.393,0-25.424-4.637-36.085-13.91C809.109,692.557,803.24,679.117,803.24,662.496z M819.033,662.697
			c0,11.468,3.852,20.899,11.559,28.291c7.661,7.394,16.507,11.088,26.544,11.088c10.887,0,20.07-3.764,27.552-11.289
			c7.482-7.616,11.224-16.892,11.224-27.823c0-11.064-3.697-20.338-11.089-27.82c-7.347-7.526-16.442-11.289-27.284-11.289
			c-10.796,0-19.914,3.763-27.352,11.289C822.751,642.582,819.033,651.765,819.033,662.697z"/>
		<path id="XMLID_23_" fill="#3C3C3B" stroke="#3C3C3B" stroke-width="0.3597" stroke-miterlimit="10" d="M1007.861,670.875
			l33.307,45.852h-19.859l-30.73-44.04h-2.925v44.04h-16.237V609.138h19.023c14.216,0,24.482,2.672,30.801,8.014
			c6.966,5.945,10.45,13.797,10.45,23.551c0,7.62-2.185,14.17-6.549,19.651C1020.774,665.835,1015.015,669.344,1007.861,670.875z
			 M987.654,658.542h5.157c15.374,0,23.064-5.877,23.064-17.629c0-11.01-7.48-16.516-22.438-16.516h-5.783V658.542z"/>
		<path id="XMLID_30_" fill="#3C3C3B" stroke="#3C3C3B" stroke-width="0.3597" stroke-miterlimit="10" d="M1122.701,624.397v92.329
			h-16.236v-92.329h-24.736v-15.26h65.64v15.26H1122.701z"/>
		<path id="XMLID_32_" fill="#3C3C3B" stroke="#3C3C3B" stroke-width="0.3597" stroke-miterlimit="10" d="M1263.887,624.397h-43.136
			v25.853h41.881v15.26h-41.881v35.956h43.136v15.261h-59.369V609.138h59.369V624.397z"/>
		<g id="XMLID_34_">
			<path id="XMLID_1317_" fill="#3C3C3B" stroke="#3C3C3B" stroke-width="0.3597" stroke-miterlimit="10" d="M1381.823,609.138
				l-43.343,107.589h-16.527l43.345-107.589H1381.823z"/>
			<path id="XMLID_1310_" fill="#3C3C3B" stroke="#3C3C3B" stroke-width="0.3597" stroke-miterlimit="10" d="M1338.48,609.138
				l43.343,107.589h-16.525l-43.345-107.589H1338.48z"/>
		</g>
	</g>
	<g id="XMLID_106_">
		<path id="XMLID_772_" fill="#3C3C3B" stroke="#3C3C3B" stroke-width="0.3597" stroke-miterlimit="10" d="M789.646,863.979
			l27.675,69.35l28.062-69.35h16.529l-44.915,107.589l-43.88-107.589H789.646z"/>
		<g id="XMLID_107_">
			<path id="XMLID_110_" fill="#3C3C3B" stroke="#3C3C3B" stroke-width="0.3597" stroke-miterlimit="10" d="M1277.34,863.979
				l-43.345,107.589h-16.529l43.345-107.589H1277.34z"/>
			<path id="XMLID_108_" fill="#3C3C3B" stroke="#3C3C3B" stroke-width="0.3597" stroke-miterlimit="10" d="M1233.995,863.979
				l43.345,107.589h-16.529l-43.345-107.589H1233.995z"/>
		</g>
	</g>
	<g id="XMLID_35_">
		<path id="XMLID_105_" fill="#3C3C3B" stroke="#3C3C3B" stroke-width="0.3597" stroke-miterlimit="10" d="M892.63,1115.491
			l27.674,69.348l28.062-69.348h16.528l-44.915,107.587l-43.878-107.587H892.63z"/>
		<g id="XMLID_36_">
			<path id="XMLID_103_" fill="#3C3C3B" stroke="#3C3C3B" stroke-width="0.3597" stroke-miterlimit="10" d="M1174.189,1115.489
				l-43.344,107.589h-16.529l43.345-107.589H1174.189z"/>
			<path id="XMLID_41_" fill="#3C3C3B" stroke="#3C3C3B" stroke-width="0.3597" stroke-miterlimit="10" d="M1130.846,1115.489
				l43.344,107.589h-16.528l-43.345-107.589H1130.846z"/>
		</g>
	</g>
</g>
</svg>
